<svg width="90" height="90" viewBox="0 0 90 90" fill="none" xmlns="http://www.w3.org/2000/svg">
<g clip-path="url(#clip0_14_30)">
<path d="M64.5022 74.4953C65.8659 72.7491 66.3497 70.4713 65.8123 68.3217C63.9177 60.745 60.1465 45.6644 60.1465 45.6644H54.8828C48.5866 45.6644 43.4644 40.5412 43.4644 34.244C43.4644 27.9479 48.5866 22.8256 54.8828 22.8256H61.416C60.6813 21.0866 59.165 19.7328 57.2451 19.2532C48.6536 17.1054 31.1723 12.7358 31.1723 12.7358L19.2092 0.772295C18.1795 -0.257432 16.5101 -0.257432 15.4803 0.772295L0.772203 15.4804C-0.257523 16.5102 -0.257523 18.1796 0.772203 19.2093L9.41994 27.857C11.4748 24.8234 14.9488 22.8256 18.8807 22.8256H25.5535C31.85 22.8256 36.9726 27.9483 36.9726 34.2447C36.9726 35.594 36.7374 36.8894 36.3059 38.0921C38.6021 40.1823 40.0454 43.1938 40.0454 46.5362C40.0454 47.8855 39.8102 49.1809 39.3785 50.3836C41.6747 52.4738 43.1183 55.4854 43.1183 58.8277C43.1183 60.177 42.8831 61.4724 42.4513 62.6751C44.7476 64.7653 46.1909 67.7768 46.1909 71.1192C46.1909 73.3809 45.5273 75.4892 44.3885 77.2649H48.2672H58.8273H58.8291C61.0462 77.2646 63.1385 76.2413 64.5022 74.4953Z" fill="#2E2829"/>
<path d="M89.2278 70.7909L77.2646 58.8277C77.2646 58.8277 70.9363 33.511 70.7467 32.7522C70.062 30.0172 67.6044 28.0989 64.7852 28.0989H54.8828C51.4879 28.0989 48.7378 30.853 48.7378 34.2438C48.7378 37.6443 51.5014 40.3907 54.8828 40.3907H62.2051C63.415 40.3907 64.4695 41.2141 64.7631 42.3878L70.9283 67.0423C71.866 70.7933 71.0386 74.6929 68.6582 77.7409C67.2326 79.5666 65.3759 80.9254 63.2855 81.7222L70.791 89.2277C71.8207 90.2574 73.4901 90.2574 74.5198 89.2277L89.2278 74.5197C90.2573 73.4902 90.2573 71.8206 89.2278 70.7909Z" fill="#2E2829"/>
<path d="M34.7722 64.9734H31.6993C35.0859 64.9734 37.845 62.2241 37.845 58.8277C37.845 55.4314 35.0905 52.682 31.6993 52.682H28.6265C32.0131 52.682 34.7722 49.9328 34.7722 46.5364C34.7722 43.1401 32.0175 40.3907 28.6265 40.3907H25.5537C28.9403 40.3907 31.6993 37.6415 31.6993 34.245C31.6993 30.8488 28.9448 28.0994 25.5537 28.0994H18.8808C15.4942 28.0994 12.7352 30.8486 12.7352 34.245C12.7352 37.6413 15.4897 40.3907 18.8808 40.3907H21.9537C18.5671 40.3907 15.808 43.1399 15.808 46.5364C15.808 49.9326 18.5625 52.682 21.9537 52.682H25.0265C21.6399 52.682 18.8808 55.4312 18.8808 58.8277C18.8808 62.224 21.6355 64.9734 25.0265 64.9734H28.0993C24.7127 64.9734 21.9537 67.7226 21.9537 71.119C21.9537 74.5153 24.7082 77.2647 28.0993 77.2647H34.7722C38.1588 77.2647 40.9178 74.5155 40.9178 71.119C40.9178 67.7227 38.1633 64.9734 34.7722 64.9734Z" fill="#2E2829"/>
</g>
<defs>
<clipPath id="clip0_14_30">
<rect width="90" height="90" fill="white"/>
</clipPath>
</defs>
</svg>
