<svg width="90" height="90" viewBox="0 0 90 90" fill="none" xmlns="http://www.w3.org/2000/svg">
<path d="M73.242 51.2505C70.7013 48.9816 67.4775 47.1357 64.9674 45.8784C62.6823 44.7399 60.9894 44.0865 60.9579 44.0739C57.0573 42.7023 55.665 41.3028 55.1835 40.3713L54.9882 39.8097C54.9324 39.6117 54.8847 39.4263 54.8388 39.2472L54.3645 36.5832L54.3519 36.4545C55.6434 34.8066 56.6928 32.9139 57.393 30.9771L57.4893 30.8277C58.5999 29.7171 59.2011 26.9055 59.2047 26.8785C60.0201 24.5907 59.7159 23.5953 59.463 23.1957L59.3595 23.031L59.4189 22.8492C59.5017 22.6017 61.4169 16.7373 58.7736 12.2688L58.725 12.1509C58.7178 12.1113 57.7296 7.9812 52.8831 6.1524C51.0588 5.0463 48.006 4.5 45.2439 4.5C45.162 4.5 45.0828 4.5009 45.0018 4.5027C44.9217 4.5009 44.8425 4.5 44.7606 4.5C41.9985 4.5 38.9448 5.0463 37.1187 6.1533C32.2731 7.983 31.2849 12.1113 31.2759 12.1518L31.23 12.2697C28.5867 16.7382 30.501 22.6017 30.5838 22.8501L30.6432 23.0319L30.5406 23.1966C30.2886 23.5962 29.9826 24.5916 30.7989 26.8794C30.8016 26.9064 31.4037 29.718 32.5152 30.8286L32.6124 30.978C33.3126 32.9157 34.3629 34.8075 35.6526 36.4554L35.64 36.5841L35.1657 39.2481C35.1189 39.4272 35.0721 39.6126 35.0163 39.8106L34.821 40.3722C34.3404 41.3037 32.9481 42.7032 29.0484 44.0748C29.0151 44.0883 27.3231 44.7417 25.0362 45.8784C22.5261 47.1366 19.3041 48.9816 16.7625 51.2505C16.7085 51.291 11.8971 54.9315 12.3075 64.6137C12.3345 65.3166 12.3876 66.042 12.4776 66.8061C12.4776 67.5774 12.7242 68.1984 14.2137 68.6628C14.3136 68.7006 22.9887 71.7669 35.5221 72.8802L35.3997 72.8334C33.8103 72.2304 32.6691 71.2548 32.0085 69.9345C31.5072 68.9301 31.0788 67.2885 31.8879 65.1528L31.9059 65.1069L31.9239 65.0619C34.1622 59.5179 38.9277 56.4651 45.3411 56.4651C53.1288 56.4651 58.5675 61.1496 58.5675 67.8573C58.5675 69.7275 58.185 71.2674 57.5991 72.5571C68.4315 71.2674 75.6963 68.697 75.7899 68.6628C77.2785 68.2002 77.5269 67.5792 77.5269 66.8061C77.6169 66.042 77.6691 65.3175 77.6961 64.6137C78.1074 54.9306 73.2951 51.291 73.242 51.2505Z" fill="#2E2829"/>
<path d="M45.0441 79.2495H43.4412C41.4765 79.2495 40.8546 79.8696 40.8546 81.8019V82.9467C40.8546 84.8781 41.4765 85.5 43.4412 85.5H45.0441C47.0097 85.5 47.6307 84.8799 47.6307 82.9467V81.8019C47.6307 79.8696 47.007 79.2495 45.0441 79.2495Z" fill="#2E2829"/>
<path d="M45.3393 61.0471C40.2651 61.0471 37.548 63.3718 36.1728 66.7756C35.8128 67.7251 36.0747 68.1832 37.0242 68.5441L40.1661 69.7222C40.2975 69.7663 40.4154 69.7996 40.5261 69.823C40.5657 69.8311 40.5999 69.8347 40.6377 69.8419C40.7052 69.8527 40.7718 69.8608 40.8321 69.8635C40.8447 69.8635 40.8609 69.868 40.8735 69.868C40.8906 69.868 40.9041 69.8599 40.9203 69.859C41.0013 69.8554 41.0769 69.8401 41.1462 69.8167C41.1678 69.8095 41.1921 69.8041 41.2137 69.7951C41.2974 69.7564 41.3757 69.7024 41.4486 69.6313C41.4639 69.616 41.4774 69.5971 41.4918 69.5809C41.5512 69.5143 41.6106 69.4351 41.6682 69.3433C41.6871 69.3136 41.7078 69.2803 41.7258 69.247C41.7951 69.1273 41.8635 68.9968 41.9346 68.8375C42.7851 66.9394 43.5699 66.0547 45.306 66.0547C46.845 66.0547 47.5983 66.8404 47.5983 67.9204C47.5983 70.0804 45.7983 70.5394 44.127 71.5537C42.7194 72.4033 41.4108 73.7128 41.4108 76.8241C41.4108 77.8384 41.7375 78.1318 42.7194 78.1318H45.6642C46.6479 78.1318 46.9737 77.8384 46.9737 76.8241C46.9737 76.0384 47.4975 75.5128 48.2193 75.0223C50.1831 73.6804 53.9784 72.6337 53.9784 67.8538C53.9811 63.8632 50.8059 61.0471 45.3393 61.0471Z" fill="#2E2829"/>
</svg>
