<svg width="48" height="49" viewBox="0 0 48 49" fill="none" xmlns="http://www.w3.org/2000/svg">
<mask id="mask0_24_100" style="mask-type:luminance" maskUnits="userSpaceOnUse" x="0" y="0" width="48" height="49">
<path d="M0 0.140625H48V48.1406H0V0.140625Z" fill="white"/>
</mask>
<g mask="url(#mask0_24_100)">
<path d="M33.1875 24.1406H14.75M33.1875 24.1406L25.8125 31.5157M33.1875 24.1406L25.8125 16.7656M42.045 5.31066L42.83 6.09563C44.9397 8.20528 46.125 11.0668 46.125 14.0505V34.2307C46.125 37.2144 44.9397 40.076 42.83 42.1856L42.045 42.9706C39.9353 45.0803 37.0738 46.2656 34.0901 46.2656H13.9099C10.9262 46.2656 8.06466 45.0803 5.955 42.9706L5.17003 42.1856C3.06028 40.076 1.875 37.2144 1.875 34.2307V14.0505C1.875 11.0668 3.06028 8.20528 5.17003 6.09563L5.955 5.31066C8.06466 3.20091 10.9262 2.01562 13.9099 2.01562H34.0901C37.0738 2.01562 39.9353 3.20091 42.045 5.31066Z" stroke="#2E2829" stroke-width="4" stroke-miterlimit="10" stroke-linecap="round" stroke-linejoin="round"/>
</g>
</svg>
