<svg width="90" height="90" viewBox="0 0 90 90" fill="none" xmlns="http://www.w3.org/2000/svg">
<path d="M28.1454 47.5227H33.6954V40.3636C33.6954 39.6273 34.2954 39.0273 35.0318 39.0273C35.7682 39.0273 36.3682 39.6273 36.3682 40.3636V48.8455V48.8591V53.8636V53.9045V78.6545H43.65V59.2364C43.65 58.5 44.25 57.9 44.9864 57.9C45.7227 57.9 46.3227 58.5 46.3227 59.2364V78.6545H53.5909V53.8636V48.8591V40.3636C53.5909 39.6273 54.1909 39.0273 54.9273 39.0273C55.6636 39.0273 56.2636 39.6273 56.2636 40.3636V47.5091H61.8136V30.7227C61.8136 26.6591 58.7864 23.2636 54.7773 22.8273C54.6 22.8 54.45 22.8136 54.3136 22.8273C54.1773 22.8273 54.0409 22.8409 53.9182 22.8409H36.0545C35.9182 22.8409 35.7954 22.8409 35.6591 22.8273C35.5091 22.8273 35.3591 22.8136 35.2364 22.8273C31.1864 23.2636 28.1591 26.6591 28.1591 30.7227V47.5227H28.1454Z" fill="#2E2829"/>
<path d="M56.3045 53.8637C56.3045 55.391 57.5454 56.6456 59.0863 56.6456C60.6136 56.6456 61.8545 55.4183 61.8545 53.891V50.1956H56.3045V53.8637Z" fill="#2E2829"/>
<path d="M53.7136 11.4273C53.7136 6.62726 49.8 2.71362 45 2.71362C40.2 2.71362 36.2863 6.62726 36.2863 11.4273C36.2863 16.2136 40.159 20.1 44.9181 20.1545H45.0818C49.8545 20.1 53.7136 16.2136 53.7136 11.4273Z" fill="#2E2829"/>
<path d="M79.0772 79.2273H72.6V81.2455V81.2591C72.6 83.0455 74.0454 84.4909 75.8318 84.4909C76.7318 84.4909 77.5363 84.1228 78.1227 83.55C78.7091 82.9637 79.0772 82.1591 79.0772 81.2591V79.2273Z" fill="#2E2829"/>
<path d="M69.9136 81.2591V81.2455V79.2273H63.4227V81.2591C63.4227 82.1455 63.7909 82.9637 64.3773 83.55C64.9636 84.1364 65.7818 84.4909 66.6682 84.4909C67.3364 84.4909 67.9636 84.2864 68.4818 83.9455C69.3409 83.3591 69.9136 82.3773 69.9136 81.2591Z" fill="#2E2829"/>
<path d="M79.1727 17.5636C79.1727 13.2 75.6273 9.64087 71.25 9.64087C66.8864 9.64087 63.3273 13.1863 63.3273 17.5636C63.3273 21.9272 66.8591 25.4727 71.2091 25.4863H71.2909C75.6409 25.4591 79.1727 21.9136 79.1727 17.5636Z" fill="#2E2829"/>
<path d="M33.6954 53.8637V50.1956H28.1591V53.891C28.1591 55.4046 29.3863 56.6456 30.9136 56.6456C31.8818 56.6456 32.7272 56.1546 33.2318 55.4183C33.2318 55.4046 33.2454 55.391 33.2454 55.391C33.3409 55.2546 33.4227 55.1046 33.4772 54.9546C33.6136 54.6137 33.6954 54.2456 33.6954 53.8637Z" fill="#2E2829"/>
<path d="M81.7636 56.6183C81.7636 56.9592 81.8318 57.2864 81.9545 57.5864C82.3227 58.4728 83.1954 59.0864 84.2182 59.0864C85.2545 59.0864 86.1272 58.4455 86.4818 57.5455C86.5909 57.2728 86.6591 56.9728 86.6591 56.6592V53.3728H81.7773V56.6183H81.7636Z" fill="#2E2829"/>
<path d="M64.5272 48.8591V53.8909V53.9045C64.5272 55.1318 64.1045 56.25 63.4091 57.1636V76.5409H69.9V61.5682C69.9 60.8318 70.5 60.2318 71.2363 60.2318C71.9727 60.2318 72.5727 60.8318 72.5727 61.5682V76.5273H79.05V56.6455V56.6318V52.0227V44.2091C79.05 43.4727 79.65 42.8727 80.3863 42.8727C81.1227 42.8727 81.7227 43.4727 81.7227 44.2091V50.6864H86.6045V35.3318C86.6045 31.65 83.8636 28.5682 80.2363 28.1727C80.0727 28.1455 79.9363 28.1591 79.8136 28.1727C79.6909 28.1727 79.5681 28.1864 79.4454 28.1864H64.1727C64.3772 29.0045 64.4863 29.85 64.4863 30.7364V48.8591H64.5272Z" fill="#2E2829"/>
<path d="M8.23634 50.6728V44.1955C8.23634 43.4591 8.83634 42.8591 9.5727 42.8591C10.3091 42.8591 10.9091 43.4591 10.9091 44.1955V51.9955V52.0091V52.0228V56.6182V56.6319V76.541H17.4V61.5682C17.4 60.8319 18 60.2319 18.7363 60.2319C19.4727 60.2319 20.0727 60.8319 20.0727 61.5682V76.5273H26.55V57.15C25.8682 56.2364 25.4454 55.1319 25.4454 53.9046V30.7228C25.4454 29.85 25.5545 28.991 25.7591 28.1728H10.5136C10.3909 28.1728 10.2545 28.1728 10.1318 28.1591C10.0091 28.1591 9.88634 28.1455 9.76361 28.1591C6.08179 28.5546 3.34088 31.6364 3.34088 35.3319V50.6864H8.23634V50.6728Z" fill="#2E2829"/>
<path d="M46.35 83.6454V83.659C46.35 85.6635 47.9727 87.2863 49.9772 87.2863C51.9954 87.2863 53.6182 85.6635 53.6182 83.659V81.3408H46.35V83.6454Z" fill="#2E2829"/>
<path d="M43.6636 81.3408H36.3818V83.659C36.3818 85.6635 38.0045 87.2863 40.009 87.2863C42.0272 87.2863 43.65 85.6635 43.65 83.659V83.6454V81.3408H43.6636Z" fill="#2E2829"/>
<path d="M26.5636 81.2591V79.2273H20.0864V81.2455V81.2591C20.0864 82.3773 20.6591 83.3591 21.5182 83.9455C22.0364 84.3 22.65 84.4909 23.3182 84.4909C25.1182 84.4909 26.5636 83.0455 26.5636 81.2591Z" fill="#2E2829"/>
<path d="M14.1545 84.4909C15.9545 84.4909 17.4 83.0455 17.4 81.2591C17.4 81.2455 17.4 81.2318 17.4 81.2318V79.2273H10.9227V81.2591C10.9227 81.7091 11.0182 82.1318 11.1818 82.5137C11.6727 83.6727 12.8182 84.4909 14.1545 84.4909Z" fill="#2E2829"/>
<path d="M8.23631 53.3591H3.35449V56.6455C3.35449 57.9955 4.4454 59.0864 5.78176 59.0864C7.1454 59.0864 8.24995 57.9819 8.24995 56.6182C8.24995 56.6182 8.24995 56.6182 8.24995 56.6046V53.3591H8.23631Z" fill="#2E2829"/>
<path d="M26.6727 17.5636C26.6727 13.2 23.1273 9.64087 18.75 9.64087C14.3727 9.64087 10.8273 13.1863 10.8273 17.5636C10.8273 21.9272 14.3591 25.4727 18.7091 25.4863H18.7773C23.1409 25.4727 26.6727 21.9136 26.6727 17.5636Z" fill="#2E2829"/>
</svg>
