<svg width="100" height="100" viewBox="0 0 100 100" fill="none" xmlns="http://www.w3.org/2000/svg">
<g clip-path="url(#clip0_127_3279)">
<path d="M94.8717 16.6666H5.12832C2.30762 16.6666 0 18.9742 0 21.7947V78.2051C0 81.0254 2.30762 83.3334 5.12832 83.3334H94.8719C97.6922 83.3334 100 81.0258 100 78.2051V21.7947C100 18.9742 97.6924 16.6666 94.8717 16.6666ZM92.9473 20.5125L52.95 50.5129C52.2309 51.0602 51.1269 51.4026 49.9998 51.3975C48.8728 51.4026 47.7691 51.0602 47.0498 50.5129L7.05254 20.5125H92.9473ZM71.582 52.4924L93.3769 79.4156C93.3988 79.4426 93.4256 79.4631 93.4488 79.4875H6.55117C6.57422 79.4619 6.60117 79.4426 6.62305 79.4156L28.418 52.4924C29.0857 51.6668 28.9592 50.4565 28.132 49.7871C27.3064 49.1194 26.0961 49.2459 25.4281 50.0717L3.84609 76.7321V22.9164L44.7434 53.5895C46.2807 54.7344 48.151 55.2383 49.9996 55.2434C51.8457 55.2395 53.7176 54.7356 55.2559 53.5895L96.1531 22.9164V76.7317L74.5717 50.0717C73.9037 49.2461 72.6922 49.1192 71.8678 49.7871C71.0408 50.4549 70.9139 51.6668 71.582 52.4924Z" fill="white"/>
</g>
<defs>
<clipPath id="clip0_127_3279">
<rect width="100" height="100" fill="white"/>
</clipPath>
</defs>
</svg>
