<svg width="54" height="54" viewBox="0 0 54 54" fill="none" xmlns="http://www.w3.org/2000/svg">
<path d="M46.8325 53.5751H33.4518C31.6049 53.5751 30.0282 52.9211 28.7215 51.6131C27.4148 50.3051 26.7614 48.7268 26.7614 46.8782V33.4844C26.7614 31.6358 27.4148 30.0575 28.7215 28.7495C30.0282 27.4415 31.6049 26.7875 33.4518 26.7875H46.8325C48.6793 26.7875 50.256 27.4415 51.5627 28.7495C52.8694 30.0575 53.5228 31.6358 53.5228 33.4844V46.8782C53.5228 48.7268 52.8694 50.3051 51.5627 51.6131C50.256 52.9211 48.6793 53.5751 46.8325 53.5751ZM46.8325 35.1586C46.8325 34.7052 46.6669 34.3128 46.3359 33.9815C46.0049 33.6501 45.6129 33.4844 45.1599 33.4844H35.1243C34.6713 33.4844 34.2793 33.6501 33.9483 33.9815C33.6173 34.3128 33.4518 34.7052 33.4518 35.1586V45.204C33.4518 45.6574 33.6173 46.0498 33.9483 46.3812C34.2793 46.7125 34.6713 46.8782 35.1243 46.8782H45.1599C45.6129 46.8782 46.0049 46.7125 46.3359 46.3812C46.6669 46.0498 46.8325 45.6574 46.8325 45.204V35.1586ZM46.8325 23.4391C45.8916 23.4391 45.0989 23.1165 44.4542 22.4712C43.8096 21.8259 43.4873 21.0324 43.4873 20.0907C43.4873 19.1489 43.8183 18.3554 44.4804 17.7101C45.1424 17.0648 45.9352 16.7422 46.8586 16.7422C47.782 16.7422 48.566 17.0736 49.2107 17.7363C49.8553 18.399 50.1776 19.1925 50.1776 20.1168C50.1776 21.0411 49.8553 21.8259 49.2107 22.4712C48.566 23.1165 47.7733 23.4391 46.8325 23.4391ZM46.8325 10.0453C45.8916 10.0453 45.0989 9.72269 44.4542 9.07742C43.8096 8.43214 43.4873 7.63863 43.4873 6.69688C43.4873 5.75513 43.8183 4.96162 44.4804 4.31635C45.1424 3.67108 45.9352 3.34844 46.8586 3.34844C47.782 3.34844 48.566 3.67108 49.2107 4.31635C49.8553 4.96162 50.1776 5.75513 50.1776 6.69688C50.1776 7.63863 49.8553 8.43214 49.2107 9.07742C48.566 9.72269 47.7733 10.0453 46.8325 10.0453ZM33.4518 10.0453C32.5109 10.0453 31.7182 9.72269 31.0735 9.07742C30.4289 8.43214 30.1066 7.63863 30.1066 6.69688C30.1066 5.75513 30.4289 4.96162 31.0735 4.31635C31.7182 3.67108 32.5109 3.34844 33.4518 3.34844C34.3926 3.34844 35.1853 3.67108 35.83 4.31635C36.4746 4.96162 36.7969 5.74641 36.7969 6.67072C36.7969 7.59503 36.4746 8.38854 35.83 9.05126C35.1853 9.71397 34.3926 10.0453 33.4518 10.0453ZM13.3807 26.7875C9.68707 26.7875 6.53355 25.4795 3.92013 22.8636C1.30671 20.2476 0 17.091 0 13.3938C0 9.69653 1.30671 6.53993 3.92013 3.92396C6.53355 1.30799 9.68707 0 13.3807 0C17.0743 0 20.2279 1.30799 22.8413 3.92396C25.4547 6.53993 26.7614 9.69653 26.7614 13.3938C26.7614 17.091 25.4547 20.2476 22.8413 22.8636C20.2279 25.4795 17.0743 26.7875 13.3807 26.7875ZM6.71648 30.136C7.63989 30.136 8.42392 30.4586 9.06856 31.1039C9.7132 31.7492 10.0355 32.5427 10.0355 33.4844C10.0355 34.4262 9.7132 35.2197 9.06856 35.865C8.42392 36.5102 7.63989 36.8329 6.71648 36.8329C5.79308 36.8329 5.00034 36.5102 4.33827 35.865C3.67621 35.2197 3.34518 34.4262 3.34518 33.4844C3.34518 32.5427 3.67621 31.7492 4.33827 31.1039C5.00034 30.4586 5.79308 30.136 6.71648 30.136ZM6.71648 43.5297C7.63989 43.5297 8.42392 43.8611 9.06856 44.5238C9.7132 45.1865 10.0355 45.98 10.0355 46.9043C10.0355 47.8287 9.7132 48.6134 9.06856 49.2587C8.42392 49.904 7.63989 50.2266 6.71648 50.2266C5.79308 50.2266 5.00034 49.904 4.33827 49.2587C3.67621 48.6134 3.34518 47.8287 3.34518 46.9043C3.34518 45.98 3.67621 45.1865 4.33827 44.5238C5.00034 43.8611 5.79308 43.5297 6.71648 43.5297ZM20.0972 43.5297C21.0206 43.5297 21.8046 43.8611 22.4493 44.5238C23.0939 45.1865 23.4162 45.98 23.4162 46.9043C23.4162 47.8287 23.0939 48.6134 22.4493 49.2587C21.8046 49.904 21.0206 50.2266 20.0972 50.2266C19.1738 50.2266 18.381 49.904 17.719 49.2587C17.0569 48.6134 16.7259 47.8287 16.7259 46.9043C16.7259 45.98 17.0569 45.1865 17.719 44.5238C18.381 43.8611 19.1738 43.5297 20.0972 43.5297Z" fill="#2E2829"/>
</svg>
