<svg width="80" height="80" viewBox="0 0 80 80" fill="none" xmlns="http://www.w3.org/2000/svg">
<g clip-path="url(#clip0_72_2287)">
<path d="M77.3333 37.3335H73.3333C72.6261 37.3335 71.9478 37.6145 71.4477 38.1146C70.9476 38.6147 70.6667 39.2929 70.6667 40.0002H55.2267C55.0229 40.0032 54.8213 39.9574 54.6387 39.8669L45.8787 35.4669C45.7027 35.3762 45.5173 35.3015 45.3333 35.2269V13.9469C46.6789 12.7408 47.5765 11.1148 47.88 9.33352H62.912L55.0773 21.7109C54.9476 21.834 54.8443 21.9823 54.7737 22.1466C54.7031 22.311 54.6667 22.488 54.6667 22.6669V28.0002C54.6667 29.4147 55.2286 30.7712 56.2288 31.7714C57.229 32.7716 58.5855 33.3335 60 33.3335H70.6667C72.0812 33.3335 73.4377 32.7716 74.4379 31.7714C75.4381 30.7712 76 29.4147 76 28.0002V22.6669C76 22.488 75.9635 22.311 75.8929 22.1466C75.8223 21.9823 75.719 21.834 75.5893 21.7109L67.7547 9.33352H78.6667C79.0203 9.33352 79.3594 9.19305 79.6095 8.943C79.8595 8.69295 80 8.35381 80 8.00019C80 7.64657 79.8595 7.30743 79.6095 7.05738C79.3594 6.80733 79.0203 6.66686 78.6667 6.66686H47.88C47.5666 4.80353 46.6031 3.11154 45.1605 1.89129C43.7179 0.671031 41.8895 0.00146484 40 0.00146484C38.1105 0.00146484 36.2822 0.671031 34.8395 1.89129C33.3969 3.11154 32.4334 4.80353 32.12 6.66686H1.33333C0.979711 6.66686 0.640573 6.80733 0.390524 7.05738C0.140476 7.30743 0 7.64657 0 8.00019C0 8.35381 0.140476 8.69295 0.390524 8.943C0.640573 9.19305 0.979711 9.33352 1.33333 9.33352H12.2453L4.41067 21.7109C4.28096 21.834 4.17766 21.9823 4.10706 22.1466C4.03646 22.311 4.00003 22.488 4 22.6669V28.0002C4 29.4147 4.5619 30.7712 5.5621 31.7714C6.56229 32.7716 7.91885 33.3335 9.33333 33.3335H20C21.4145 33.3335 22.771 32.7716 23.7712 31.7714C24.7714 30.7712 25.3333 29.4147 25.3333 28.0002V22.6669C25.3333 22.488 25.2969 22.311 25.2263 22.1466C25.1557 21.9823 25.0524 21.834 24.9227 21.7109L17.088 9.33352H32.12C32.4235 11.1148 33.3211 12.7408 34.6667 13.9469V36.0802C33.8107 36.0295 32.9333 35.9962 32 35.9962C26.7387 35.9962 22.32 38.9749 20.16 40.7469C19.6894 41.13 19.1002 41.3374 18.4933 41.3335H9.33333C9.33333 40.6263 9.05238 39.948 8.55229 39.4479C8.05219 38.9478 7.37391 38.6669 6.66667 38.6669H2.66667C1.95942 38.6669 1.28115 38.9478 0.781049 39.4479C0.280952 39.948 0 40.6263 0 41.3335L0 58.6669C0 59.3741 0.280952 60.0524 0.781049 60.5525C1.28115 61.0526 1.95942 61.3335 2.66667 61.3335H6.66667C7.32314 61.3303 7.95535 61.085 8.44222 60.6446C8.92909 60.2042 9.23641 59.5997 9.30533 58.9469C12.4079 59.5508 15.358 60.7704 17.9813 62.5335L17.7 62.9989C17.2722 63.7064 17.04 64.5149 17.0273 65.3417C17.0145 66.1684 17.2217 66.9837 17.6275 67.7041C18.0334 68.4245 18.6233 69.0241 19.337 69.4416C20.0507 69.8591 20.8625 70.0795 21.6893 70.0802C22.0815 70.0797 22.472 70.0304 22.852 69.9335C22.852 69.9469 22.852 69.9602 22.852 69.9749C23.1012 70.9875 23.6819 71.8876 24.5017 72.5322C25.3214 73.1768 26.3332 73.5288 27.376 73.5322C27.7528 73.532 28.1283 73.4873 28.4947 73.3989C28.512 73.3989 28.5267 73.3855 28.544 73.3815C28.544 73.3989 28.544 73.4162 28.552 73.4322C28.7995 74.446 29.3796 75.3475 30.1997 75.9929C31.0197 76.6382 32.0325 76.9901 33.076 76.9922C33.3788 76.9847 33.6802 76.9481 33.976 76.8829C34.1523 77.6587 34.556 78.3644 35.1354 78.9096C35.7149 79.4548 36.4437 79.8149 37.2289 79.9437C38.014 80.0725 38.8197 79.9643 39.543 79.6328C40.2663 79.3013 40.8743 78.7617 41.2893 78.0829L42.4413 76.1802L46.3573 79.0482C46.9396 79.4704 47.6249 79.7279 48.3411 79.7935C49.0573 79.859 49.778 79.7303 50.4272 79.4208C51.0764 79.1112 51.6301 78.6324 52.0301 78.0347C52.4301 77.4369 52.6615 76.7424 52.7 76.0242C52.7267 76.0242 52.7547 76.0242 52.7827 76.0242C53.3927 76.0279 53.9975 75.9112 54.5624 75.6808C55.1273 75.4504 55.6412 75.1109 56.0747 74.6816C56.5082 74.2523 56.8527 73.7418 57.0886 73.1792C57.3245 72.6165 57.4471 72.0129 57.4493 71.4029C57.5667 71.4122 57.684 71.4295 57.8013 71.4295C58.565 71.4328 59.3176 71.248 59.9928 70.8912C60.668 70.5345 61.2449 70.0169 61.6725 69.3842C62.1001 68.7515 62.3652 68.0232 62.4445 67.2637C62.5237 66.5042 62.4145 65.7368 62.1267 65.0295C62.5275 64.904 62.908 64.7207 63.256 64.4855C64.2026 63.8552 64.886 62.9005 65.1776 61.8012C65.4691 60.702 65.3485 59.5341 64.8387 58.5175C66.7092 57.8276 68.6803 57.4493 70.6733 57.3975C70.69 58.0925 70.9774 58.7534 71.4743 59.2396C71.9711 59.7257 72.6382 59.9987 73.3333 60.0002H77.3333C78.0406 60.0002 78.7189 59.7192 79.219 59.2191C79.7191 58.719 80 58.0408 80 57.3335V40.0002C80 39.2929 79.7191 38.6147 79.219 38.1146C78.7189 37.6145 78.0406 37.3335 77.3333 37.3335ZM65.3333 10.4935L72.1947 21.3335H58.472L65.3333 10.4935ZM73.3333 28.0002C73.3333 28.7074 73.0524 29.3857 72.5523 29.8858C72.0522 30.3859 71.3739 30.6669 70.6667 30.6669H60C59.2928 30.6669 58.6145 30.3859 58.1144 29.8858C57.6143 29.3857 57.3333 28.7074 57.3333 28.0002V24.0002H73.3333V28.0002ZM14.6667 10.4935L21.528 21.3335H7.80533L14.6667 10.4935ZM22.6667 28.0002C22.6667 28.7074 22.3857 29.3857 21.8856 29.8858C21.3855 30.3859 20.7072 30.6669 20 30.6669H9.33333C8.62609 30.6669 7.94781 30.3859 7.44772 29.8858C6.94762 29.3857 6.66667 28.7074 6.66667 28.0002V24.0002H22.6667V28.0002ZM6.66667 58.6669H2.66667V41.3335H6.66667V58.6669ZM53.4267 42.2375C53.9838 42.5222 54.601 42.6694 55.2267 42.6669H70.6667V54.7295C67.9874 54.7478 65.3436 55.3426 62.9147 56.4735L44.3187 43.5269C43.8189 43.1762 43.2139 43.0076 42.6048 43.0494C41.9956 43.0911 41.4193 43.3406 40.972 43.7562L34.1853 50.0629C33.8965 50.3507 33.5288 50.5465 33.1287 50.6254C32.7286 50.7044 32.3141 50.663 31.9376 50.5065C31.561 50.3499 31.2393 50.0853 31.0131 49.746C30.7869 49.4067 30.6663 49.008 30.6667 48.6002C30.6594 48.1 30.8381 47.6149 31.168 47.2389L39.192 38.7882C39.8906 38.0769 40.7944 37.6023 41.7765 37.4308C42.7586 37.2594 43.7697 37.3997 44.668 37.8322L53.4267 42.2375ZM40 2.66686C41.0548 2.66686 42.086 2.97965 42.963 3.56569C43.8401 4.15172 44.5237 4.98467 44.9274 5.95921C45.331 6.93375 45.4366 8.00611 45.2309 9.04067C45.0251 10.0752 44.5171 11.0255 43.7712 11.7714C43.0254 12.5173 42.075 13.0253 41.0405 13.231C40.0059 13.4368 38.9336 13.3312 37.959 12.9275C36.9845 12.5239 36.1515 11.8403 35.5655 10.9632C34.9795 10.0862 34.6667 9.05502 34.6667 8.00019C34.6667 6.5857 35.2286 5.22915 36.2288 4.22895C37.229 3.22876 38.5855 2.66686 40 2.66686ZM37.3333 15.5335C39.0567 16.1558 40.9433 16.1558 42.6667 15.5335V34.6669C42.64 34.6669 42.6133 34.6669 42.5867 34.6669C40.8457 34.6707 39.162 35.2888 37.832 36.4122C37.6667 36.3869 37.5027 36.3602 37.3333 36.3362V15.5335ZM20.6667 67.1215C20.4416 66.9857 20.2456 66.8068 20.0897 66.5951C19.9339 66.3835 19.8213 66.1432 19.7584 65.8879C19.6954 65.6327 19.6835 65.3676 19.7231 65.1077C19.7627 64.8479 19.8532 64.5984 19.9893 64.3735L22.4973 60.2202C22.6325 59.9946 22.8114 59.7982 23.0234 59.6425C23.2354 59.4869 23.4763 59.375 23.732 59.3135C23.8887 59.275 24.0493 59.2553 24.2107 59.2549C24.5598 59.2548 24.9029 59.3461 25.2059 59.5197C25.5088 59.6934 25.761 59.9433 25.9374 60.2447C26.1137 60.546 26.2081 60.8883 26.2111 61.2375C26.2142 61.5866 26.1258 61.9305 25.9547 62.2349L23.4027 66.4402C23.4027 66.4509 23.392 66.4629 23.3867 66.4735C23.1078 66.9155 22.6671 67.2307 22.1587 67.3518C21.6504 67.4729 21.1148 67.3903 20.6667 67.1215ZM26.3613 70.5695C25.9134 70.2996 25.5896 69.8641 25.4602 69.3574C25.3307 68.8507 25.4058 68.3133 25.6693 67.8615C25.6693 67.8509 25.6853 67.8442 25.692 67.8335L28.2053 63.6815C28.2187 63.6602 28.2253 63.6362 28.2373 63.6149L28.8907 62.5362C29.0262 62.311 29.2051 62.115 29.4171 61.9595C29.629 61.8041 29.8698 61.6924 30.1253 61.6309C30.5095 61.5368 30.913 61.5589 31.2847 61.6941C31.6564 61.8294 31.9796 62.0718 32.2135 62.3908C32.4474 62.7098 32.5815 63.0909 32.5988 63.4861C32.6161 63.8813 32.5158 64.2727 32.3107 64.6109L29.1107 69.8989C28.9753 70.1241 28.7966 70.3202 28.5849 70.4758C28.3732 70.6315 28.1327 70.7435 27.8773 70.8055C27.6205 70.8685 27.3538 70.88 27.0924 70.8395C26.8311 70.799 26.5804 70.7072 26.3547 70.5695H26.3613ZM32.06 74.0282C31.6073 73.7521 31.2828 73.3075 31.1577 72.7922C31.0327 72.2769 31.1175 71.733 31.3933 71.2802L33.9067 67.1322C34.042 66.9073 34.2206 66.7116 34.432 66.5562C34.6435 66.4008 34.8837 66.2888 35.1387 66.2269C35.2958 66.1888 35.457 66.1695 35.6187 66.1695C35.9827 66.1693 36.3398 66.2694 36.6507 66.4589C36.875 66.5956 37.0702 66.7751 37.2251 66.9873C37.3801 67.1995 37.4917 67.4401 37.5536 67.6954C37.6155 67.9507 37.6265 68.2157 37.5859 68.4753C37.5454 68.7349 37.4541 68.9839 37.3173 69.2082L36.096 71.2282L34.8067 73.3615C34.5306 73.8139 34.0863 74.1381 33.5713 74.2631C33.0563 74.3881 32.5127 74.3036 32.06 74.0282ZM39.0213 76.6949C38.9325 76.8485 38.8138 76.9829 38.6724 77.0902C38.5309 77.1974 38.3694 77.2753 38.1974 77.3193C38.0254 77.3633 37.8464 77.3725 37.6708 77.3463C37.4952 77.3202 37.3266 77.2593 37.1749 77.1671C37.0231 77.075 36.8913 76.9534 36.7872 76.8097C36.683 76.6659 36.6087 76.5028 36.5684 76.3299C36.5282 76.157 36.5228 75.9778 36.5528 75.8028C36.5827 75.6278 36.6472 75.4606 36.7427 75.3109L37.084 74.7482V74.7415L38.9013 71.7335L39.248 71.1615C39.4315 70.8595 39.7274 70.6426 40.0706 70.5586C40.4139 70.4746 40.7765 70.5303 41.0787 70.7135C41.2284 70.8044 41.3588 70.9238 41.4623 71.0651C41.5659 71.2063 41.6406 71.3666 41.6822 71.5367C41.7238 71.7068 41.7315 71.8835 41.7048 72.0566C41.6781 72.2297 41.6176 72.3958 41.5267 72.5455L39.0213 76.6949ZM61.7613 62.2949C61.3949 62.5127 60.9709 62.6139 60.5455 62.5851C60.1202 62.5563 59.7137 62.3988 59.38 62.1335L55.46 59.2655C55.3185 59.1622 55.1581 59.0878 54.9878 59.0465C54.8176 59.0052 54.6409 58.9978 54.4678 59.0248C54.2947 59.0518 54.1286 59.1126 53.979 59.2038C53.8295 59.295 53.6993 59.4147 53.596 59.5562C53.4927 59.6977 53.4183 59.8581 53.377 60.0283C53.3357 60.1986 53.3283 60.3753 53.3553 60.5484C53.3823 60.7215 53.4431 60.8876 53.5343 61.0371C53.6254 61.1867 53.7452 61.3169 53.8867 61.4202L57.8067 64.2855C58.0695 64.4746 58.3499 64.6381 58.644 64.7735C58.7341 64.9229 58.8528 65.0529 58.9933 65.1562C59.4217 65.4691 59.7083 65.9395 59.7899 66.4637C59.8716 66.9879 59.7416 67.5231 59.4287 67.9515C59.1157 68.3799 58.6454 68.6665 58.1212 68.7481C57.5969 68.8298 57.0617 68.6998 56.6333 68.3869L55.5667 67.6042L51.0147 64.2709C50.7293 64.0619 50.3726 63.9748 50.023 64.0288C49.6735 64.0828 49.3597 64.2735 49.1507 64.5589C48.9417 64.8442 48.8546 65.2009 48.9086 65.5505C48.9626 65.9001 49.1533 66.2139 49.4387 66.4229L54.0027 69.7562C54.4297 70.0709 54.7142 70.5424 54.7935 71.0668C54.8729 71.5913 54.7407 72.1259 54.426 72.5529C54.1113 72.9799 53.6398 73.2643 53.1153 73.3437C52.5909 73.4231 52.0563 73.2909 51.6293 72.9762L51.1333 72.6175C51.1213 72.6069 51.1107 72.5949 51.0987 72.5855L48.7827 70.9202C48.6408 70.8174 48.4802 70.7436 48.3098 70.7029C48.1394 70.6622 47.9627 70.6555 47.7898 70.6831C47.6168 70.7107 47.451 70.7721 47.3017 70.8638C47.1525 70.9555 47.0228 71.0757 46.92 71.2175C46.8172 71.3594 46.7434 71.52 46.7027 71.6904C46.662 71.8608 46.6553 72.0375 46.6829 72.2104C46.7105 72.3834 46.7719 72.5492 46.8636 72.6985C46.9553 72.8477 47.0755 72.9774 47.2173 73.0802L49.528 74.7535C49.7989 74.9579 49.9796 75.2596 50.032 75.5949C50.0731 75.8549 50.0363 76.1214 49.9262 76.3606C49.8161 76.5998 49.6376 76.801 49.4133 76.9389C49.189 77.0768 48.9288 77.1452 48.6657 77.1355C48.4025 77.1257 48.1482 77.0383 47.9347 76.8842L43.8293 73.8789C44.3625 72.9733 44.5179 71.8943 44.2619 70.8751C44.0059 69.8559 43.3591 68.9784 42.4613 68.4322C41.7966 68.0258 41.0266 67.8249 40.248 67.8549C40.2102 67.2399 40.0499 66.6388 39.7767 66.0866C39.5034 65.5344 39.1226 65.0424 38.6566 64.6394C38.1906 64.2364 37.6489 63.9305 37.0631 63.7397C36.4773 63.5489 35.8593 63.477 35.2453 63.5282C35.2411 62.8251 35.0775 62.1322 34.767 61.5015C34.4564 60.8707 34.007 60.3186 33.4524 59.8865C32.8977 59.4544 32.2524 59.1537 31.5648 59.0069C30.8773 58.86 30.1654 58.871 29.4827 59.0389C29.1363 59.128 28.8013 59.2564 28.484 59.4215C28.1458 58.6341 27.5972 57.9551 26.8986 57.4588C26.1999 56.9626 25.3781 56.6683 24.5232 56.6082C23.6683 56.5482 22.8134 56.7247 22.0523 57.1184C21.2911 57.5121 20.653 58.1078 20.208 58.8402L19.364 60.2402C16.3235 58.2429 12.9123 56.8776 9.33333 56.2255V44.0002H18.4933C19.713 44.0009 20.8961 43.5834 21.8453 42.8175C24.6769 40.3471 28.2487 38.8872 32 38.6669C33.2387 38.6669 34.4 38.7189 35.4893 38.8135L29.208 45.4295C28.3841 46.3434 27.9484 47.5422 27.9933 48.7718C28.0382 50.0015 28.5602 51.1653 29.4486 52.0166C30.3371 52.8679 31.5221 53.3398 32.7525 53.3323C33.9829 53.3247 35.1621 52.8383 36.04 51.9762L42.7853 45.7095L61.852 58.9842C62.106 59.1699 62.3123 59.4132 62.4539 59.6941C62.5955 59.975 62.6684 60.2856 62.6667 60.6002C62.6661 60.9347 62.5824 61.2637 62.4232 61.5579C62.2641 61.852 62.0343 62.1021 61.7547 62.2855L61.7613 62.2949ZM77.3333 57.3335H73.3333V40.0002H77.3333V57.3335Z" fill="black"/>
</g>
<defs>
<clipPath id="clip0_72_2287">
<rect width="80" height="80" fill="white"/>
</clipPath>
</defs>
</svg>
