<svg width="54" height="55" viewBox="0 0 54 55" fill="none" xmlns="http://www.w3.org/2000/svg">
<path d="M11.4804 4.40687V12.0605H3.82679V4.40687H11.4804ZM0 0.580078V15.8872H15.3072V0.580078H0Z" fill="#2E2829"/>
<path d="M30.6142 10.1471V17.8007H22.9606V10.1471H30.6142ZM19.1338 6.32031V21.6275H34.441V6.32031H19.1338Z" fill="#2E2829"/>
<path d="M11.4804 27.3678V35.0214H3.82679V27.3678H11.4804ZM0 23.541V38.8482H15.3072V23.541H0Z" fill="#2E2829"/>
<path d="M38.2684 15.8875V27.3678H26.788V38.8482H15.3076V54.1554H53.5755V15.8875H38.2684ZM30.6148 31.1946H38.2684V38.8482H30.6148V31.1946ZM26.788 50.3286H19.1344V42.675H26.788V50.3286ZM38.2684 50.3286H30.6148V42.675H38.2684V50.3286ZM49.7487 50.3286H42.0952V42.675H49.7487V50.3286ZM49.7487 38.8482H42.0952V31.1946H49.7487V38.8482ZM42.0952 27.3678V19.7142H49.7487V27.3678H42.0952Z" fill="#2E2829"/>
</svg>
