<svg width="80" height="80" viewBox="0 0 80 80" fill="none" xmlns="http://www.w3.org/2000/svg">
<g clip-path="url(#clip0_72_2256)">
<mask id="mask0_72_2256" style="mask-type:luminance" maskUnits="userSpaceOnUse" x="0" y="0" width="80" height="80">
<path d="M0 7.62939e-06H80V80H0V7.62939e-06Z" fill="white"/>
</mask>
<g mask="url(#mask0_72_2256)">
<path d="M50.7863 59.555L38.1796 75.627C37.2715 76.7848 35.5968 76.9898 34.4379 76.0851L30.6035 73.0919" stroke="#060606" stroke-width="2" stroke-miterlimit="10" stroke-linecap="round" stroke-linejoin="round"/>
<path d="M25.6846 32.5859L49.5233 2.19422C50.4314 1.03641 52.1061 0.831407 53.2652 1.73609L77.7539 20.8534C78.9146 21.7594 79.1183 23.4348 78.2088 24.5944L72.6807 31.642" stroke="#060606" stroke-width="2" stroke-miterlimit="10" stroke-linecap="round" stroke-linejoin="round"/>
<path d="M45.9515 19.017L56.3344 12.0656C57.5573 11.2469 59.2122 11.5727 60.0315 12.7936L77.3323 38.5738C78.1525 39.7961 77.8247 41.4523 76.6003 42.2722L22.6733 78.3767C21.4501 79.1955 19.7956 78.8697 18.9761 77.6487L1.67545 51.8686C0.855142 50.6462 1.1828 48.99 2.40717 48.1702L40.5076 22.6617" stroke="#060606" stroke-width="2" stroke-miterlimit="10" stroke-linecap="round" stroke-linejoin="round"/>
<path d="M36.7847 59.1665C33.2005 58.4685 29.8841 56.4006 27.69 53.1312C23.3156 46.6129 25.0592 37.7874 31.5842 33.419C38.1092 29.0504 46.9447 30.7932 51.3191 37.3113C55.6933 43.8296 53.9497 52.6549 47.4249 57.0235C46.1566 57.8726 44.8013 58.4907 43.4083 58.8879" stroke="#060606" stroke-width="2" stroke-miterlimit="10" stroke-linecap="round" stroke-linejoin="round"/>
<path d="M9.78721 43.2295C13.3405 48.5245 11.9244 55.6936 6.62393 59.2422L1.67331 51.8653C0.854086 50.6445 1.18284 48.9903 2.40737 48.1705L9.78721 43.2295Z" stroke="#060606" stroke-width="2" stroke-miterlimit="10" stroke-linecap="round" stroke-linejoin="round"/>
<path d="M14.0391 70.2921C19.3508 66.736 26.5311 68.1363 30.077 73.4201L22.6767 78.3746C21.452 79.1945 19.7953 78.8696 18.9761 77.6488L14.0391 70.2921Z" stroke="#060606" stroke-width="2" stroke-miterlimit="10" stroke-linecap="round" stroke-linejoin="round"/>
<path d="M69.2239 47.2178C65.6706 41.9228 67.0867 34.7537 72.3872 31.2051L77.3378 38.582C78.157 39.8028 77.8283 41.457 76.6037 42.2768L69.2239 47.2178Z" stroke="#060606" stroke-width="2" stroke-miterlimit="10" stroke-linecap="round" stroke-linejoin="round"/>
<path d="M64.9725 20.1554C59.6608 23.7115 52.4805 22.3111 48.9346 17.0274L56.3349 12.0729C57.5596 11.253 59.2163 11.5779 60.0355 12.7986L64.9725 20.1554Z" stroke="#060606" stroke-width="2" stroke-miterlimit="10" stroke-linecap="round" stroke-linejoin="round"/>
<path d="M57.3506 33.2729L62.8673 29.5795" stroke="#060606" stroke-width="2" stroke-miterlimit="10" stroke-linecap="round" stroke-linejoin="round"/>
<path d="M16.1416 60.8628L21.6582 57.1694" stroke="#060606" stroke-width="2" stroke-miterlimit="10" stroke-linecap="round" stroke-linejoin="round"/>
<path d="M38.1756 37.8994C38.1756 37.8994 35.8989 37.5475 34.1659 39.6522C32.5747 41.5847 33.9039 44.6341 35.9686 44.7863C37.1542 44.8736 38.6597 44.5902 40.6092 44.0902C44.9728 42.971 46.9976 48.8055 43.4239 51.2328C42.0292 52.18 41.3147 52.5299 39.5456 52.5513" stroke="#060606" stroke-width="2" stroke-miterlimit="10" stroke-linecap="round" stroke-linejoin="round"/>
<path d="M33.9443 37.1075L44.6389 53.0439" stroke="#060606" stroke-width="2" stroke-miterlimit="10" stroke-linecap="round" stroke-linejoin="round"/>
</g>
</g>
<defs>
<clipPath id="clip0_72_2256">
<rect width="80" height="80" fill="white"/>
</clipPath>
</defs>
</svg>
