<svg width="54" height="54" viewBox="0 0 54 54" fill="none" xmlns="http://www.w3.org/2000/svg">
<path d="M52.5309 52.5298C51.8682 53.1932 51.0834 53.5423 50.1765 53.5772C49.2697 53.6122 48.5023 53.3154 47.8745 52.687L42.9042 47.7118C39.9046 49.7019 36.5649 50.5049 32.8851 50.1208C29.2054 49.7368 26.0575 48.2355 23.4416 45.617L22.6045 44.7791L44.7877 22.6266L45.5725 23.4121C48.1884 26.0306 49.6882 29.1816 50.0719 32.8649C50.4556 36.5483 49.6708 39.9087 47.7175 42.9461L52.6878 47.8689C53.3157 48.4974 53.6121 49.2654 53.5773 50.1732C53.5424 51.0809 53.1936 51.8665 52.5309 52.5298ZM27.7841 22.5218L22.4475 17.2325L17.2157 22.4695L22.5522 27.7588C23.18 28.3873 23.4765 29.1554 23.4416 30.0631C23.4067 30.9709 23.0579 31.7564 22.3952 32.4198C21.7325 33.0831 20.9477 33.4323 20.0409 33.4672C19.134 33.5021 18.3667 33.2053 17.7388 32.5769L12.4023 27.2875L8.74 30.9534L7.95522 30.1155C5.33928 27.497 3.83947 24.3461 3.4558 20.6627C3.07213 16.9794 3.85691 13.6364 5.81015 10.6339L0.892174 5.71108C0.264348 5.08264 -0.0321256 4.31455 0.00275362 3.40681C0.0376329 2.49906 0.386425 1.71351 1.04913 1.05016C1.71184 0.386803 2.49662 0.0376696 3.40348 0.00275631C4.31034 -0.032157 5.07768 0.264606 5.70551 0.893046L10.6235 5.81582C13.6231 3.82576 16.9628 3.02276 20.6425 3.40681C24.3223 3.79085 27.4876 5.29212 30.1384 7.91062L30.9232 8.74854L27.2609 12.4144L32.5974 17.7038C33.2252 18.3322 33.5217 19.1003 33.4868 20.0081C33.4519 20.9158 33.1031 21.7014 32.4404 22.3647C31.7777 23.0281 30.9929 23.3772 30.0861 23.4121C29.1792 23.4471 28.4119 23.1503 27.7841 22.5218Z" fill="#2E2829"/>
</svg>
