<svg width="54" height="54" viewBox="0 0 54 54" fill="none" xmlns="http://www.w3.org/2000/svg">
<path d="M13.2271 26.8232H11.7009C9.61816 26.7479 7.54218 27.1015 5.60179 27.8619C3.6614 28.6224 1.898 29.7735 0.421021 31.2439L0 31.7351V46.2603H7.15737V38.0153L8.12221 36.9277L8.56077 36.4189C10.8447 34.0726 13.6881 32.3461 16.8233 31.4018C15.2531 30.2079 14.0149 28.6316 13.2271 26.8232Z" fill="#2E2829"/>
<path d="M47.1537 31.1914C45.6767 29.721 43.9133 28.5699 41.9729 27.8094C40.0325 27.049 37.9565 26.6954 35.8738 26.7707C35.235 26.7725 34.5968 26.8076 33.9616 26.8759C33.1583 28.5721 31.9542 30.0472 30.4531 31.1739C33.8002 32.0998 36.8323 33.9191 39.2244 36.4366L39.663 36.9278L40.6103 38.0155V46.278H47.522V31.6826L47.1537 31.1914Z" fill="#2E2829"/>
<path d="M11.6473 23.4025H12.1911C11.9384 21.2329 12.3191 19.0365 13.2872 17.0785C14.2553 15.1205 15.7694 13.4846 17.6468 12.3682C16.9663 11.3285 16.0274 10.4834 14.9221 9.91563C13.8169 9.34785 12.5831 9.07685 11.3416 9.12917C10.1001 9.18148 8.89346 9.55533 7.83987 10.2141C6.78627 10.8728 5.92182 11.7939 5.33117 12.8872C4.74051 13.9804 4.4439 15.2083 4.47038 16.4506C4.49686 17.6929 4.84552 18.907 5.48221 19.9741C6.11891 21.0412 7.02182 21.9246 8.10253 22.5379C9.18324 23.1512 10.4047 23.4732 11.6473 23.4726V23.4025Z" fill="#2E2829"/>
<path d="M23.5251 29.946C27.8559 29.946 31.3667 26.4352 31.3667 22.1045C31.3667 17.7737 27.8559 14.2629 23.5251 14.2629C19.1944 14.2629 15.6836 17.7737 15.6836 22.1045C15.6836 26.4352 19.1944 29.946 23.5251 29.946Z" fill="#2E2829"/>
<path d="M23.9465 34.1207C21.6555 34.0282 19.3695 34.4001 17.226 35.2141C15.0825 36.0281 13.1258 37.2673 11.4737 38.8572L11.0352 39.3484V50.4528C11.042 50.8145 11.12 51.1714 11.2648 51.5029C11.4096 51.8344 11.6183 52.1342 11.8789 52.3851C12.1396 52.636 12.4471 52.833 12.7839 52.965C13.1207 53.097 13.4803 53.1614 13.842 53.1544H33.9984C34.3601 53.1614 34.7196 53.097 35.0564 52.965C35.3933 52.833 35.7008 52.636 35.9614 52.3851C36.2221 52.1342 36.4308 51.8344 36.5755 51.5029C36.7203 51.1714 36.7983 50.8145 36.8052 50.4528V39.3835L36.3842 38.8572C34.7428 37.2624 32.7929 36.0197 30.6542 35.2053C28.5154 34.3908 26.2329 34.0217 23.9465 34.1207Z" fill="#2E2829"/>
<path d="M35.0324 22.087C35.0537 22.4902 35.0537 22.8942 35.0324 23.2974C35.3691 23.3508 35.7091 23.3801 36.0499 23.3851H36.3832C38.0146 23.3256 39.5757 22.7061 40.8039 21.6308C38.3926 20.848 36.2587 19.3852 34.659 17.4183C33.0594 15.4514 32.0621 13.0642 31.7871 10.5439C31.0145 11.078 30.3532 11.7573 29.8398 12.5438C31.4276 13.5804 32.7332 14.995 33.6395 16.6606C34.5457 18.3262 35.0244 20.1908 35.0324 22.087Z" fill="#2E2829"/>
<path d="M44.8025 17.8062C49.6468 17.8062 53.5738 13.8792 53.5738 9.03496C53.5738 4.19071 49.6468 0.263672 44.8025 0.263672C39.9583 0.263672 36.0312 4.19071 36.0312 9.03496C36.0312 13.8792 39.9583 17.8062 44.8025 17.8062Z" fill="#2E2829"/>
</svg>
