<svg width="72" height="72" viewBox="0 0 72 72" fill="none" xmlns="http://www.w3.org/2000/svg">
<path d="M54.3052 40.1882C53.6095 38.9836 52.0634 38.5696 50.8589 39.265L46.9805 41.5042C46.3986 41.8401 45.9819 42.3845 45.807 43.0367C45.6947 43.4557 45.6927 43.8857 45.7936 44.294C42.5523 45.1556 39.7305 44.7293 37.8369 44.3126C34.7403 43.6307 33.2434 44.2867 31.1942 46.1261L26.1936 44.3398C26.3064 43.9178 26.3097 43.4715 26.1931 43.0367C26.0183 42.3845 25.6016 41.8403 25.0197 41.5042L21.1413 39.265C19.9366 38.5698 18.3906 38.9837 17.695 40.1882L10.8881 51.9782C10.1927 53.1829 10.6069 54.7289 11.8116 55.4245L15.69 57.6637C16.0863 57.8926 16.5195 58.0012 16.9472 58.0012C17.7894 58.0012 18.6092 57.5787 19.085 56.8226L22.1195 60.6123L22.0036 60.7771C20.9531 62.2709 21.5544 63.8618 22.6911 64.6617C23.1306 64.9709 23.6545 65.1648 24.1923 65.2C24.1455 65.5225 24.1591 65.8489 24.2353 66.1678C24.3931 66.8271 24.8039 67.4179 25.3916 67.8312C25.9794 68.2446 26.6742 68.4304 27.348 68.3573C27.4719 68.3436 27.5938 68.3211 27.713 68.2898C27.8856 68.9473 28.3106 69.5201 28.8612 69.9075C29.6973 70.4956 30.8384 70.666 31.8017 70.1215C31.8069 70.1328 31.812 70.1443 31.8173 70.1557C32.2516 71.0921 33.1966 71.7568 34.2248 71.849C34.3061 71.8564 34.3867 71.86 34.4667 71.86C35.3422 71.8598 36.1414 71.4287 36.6873 70.6523L37.1886 69.9396L39.5809 71.3329C40.0747 71.6204 40.5641 71.7459 41.025 71.7459C42.0369 71.7459 42.9114 71.1407 43.392 70.3157C43.66 69.8557 43.8081 69.3229 43.8003 68.789C44.8828 68.8589 45.8298 68.2353 46.3372 67.3643C46.5878 66.9343 46.7336 66.4406 46.745 65.9418C47.3286 66.0318 47.9145 65.9268 48.4409 65.6254C49.3367 65.1126 49.9181 64.1142 49.922 63.082C49.9239 62.5518 49.773 62.056 49.4902 61.6303C49.9583 61.3732 50.3483 60.9815 50.6159 60.5214C51.1303 59.6368 51.1994 58.4846 50.5706 57.571L52.7119 56.4776L52.8634 56.7403C53.3303 57.5487 54.1798 58.0011 55.0525 58.0011C55.4802 58.0011 55.9134 57.8923 56.3097 57.6636L60.1883 55.4243C61.393 54.7287 61.8072 53.1828 61.1117 51.9781L54.3052 40.1882ZM16.4711 56.3104L12.5927 54.0712C12.1341 53.8065 11.9764 53.2179 12.2411 52.7593L19.048 40.9693C19.2256 40.6617 19.5491 40.4895 19.8812 40.4895C20.0441 40.4895 20.2091 40.5309 20.3598 40.6179L24.2383 42.8571C24.4588 42.9843 24.6169 43.1918 24.6838 43.4407C24.7505 43.69 24.7172 43.9484 24.5898 44.1689L17.783 55.9589C17.5183 56.4178 16.9297 56.5756 16.4711 56.3104ZM23.59 63.3837C23.1242 63.0559 22.7638 62.412 23.2814 61.676L25.2956 58.8125C25.8133 58.0767 26.5408 58.1978 27.0067 58.5253C27.472 58.8523 27.8323 59.4943 27.3192 60.2284L26.4142 61.5151C26.4142 61.5151 26.4142 61.5153 26.4141 61.5153L25.3017 63.0967C25.3016 63.0968 25.3014 63.0968 25.3014 63.097C24.7838 63.8332 24.0559 63.7115 23.59 63.3837ZM28.002 66.2667C27.4844 67.0028 26.7566 66.8815 26.2905 66.5534C25.8245 66.2256 25.4641 65.5817 25.9819 64.8457L26.5794 63.9964C26.5794 63.9964 26.5794 63.9962 26.5795 63.9962L27.692 62.4145L27.6922 62.4143L28.5955 61.1301C28.5964 61.1287 28.5973 61.1275 28.5983 61.1262L29.3969 59.9907C29.9147 59.2548 30.6423 59.376 31.1084 59.704C31.5744 60.0318 31.9348 60.6756 31.417 61.4118L30.9895 62.0198C30.9895 62.02 30.9894 62.0201 30.9892 62.0203L30.9891 62.0204L28.1733 66.0234L28.002 66.2667ZM31.4719 68.3428C30.9542 69.079 30.2262 68.9575 29.7603 68.6295C29.2944 68.3018 28.9339 67.6582 29.4513 66.9223L32.267 62.9193C32.267 62.9193 32.267 62.9193 32.2672 62.9192L32.268 62.9181C32.7858 62.1843 33.5127 62.306 33.9781 62.6337C34.4439 62.9615 34.8042 63.6054 34.2866 64.3414L33.1233 65.9953C33.1227 65.9962 33.1222 65.997 33.1216 65.9978L32.1116 67.4335L31.4719 68.3428ZM35.4094 69.7534C35.1316 70.1487 34.7798 70.3296 34.3644 70.2928C33.8969 70.2509 33.4323 69.9243 33.2348 69.4984C33.0594 69.12 33.1113 68.7276 33.3892 68.3326C33.3894 68.3325 33.3895 68.3321 33.3897 68.3318L34.3994 66.8965C34.3994 66.8965 34.3994 66.8965 34.3994 66.8964L34.4002 66.8953C34.9178 66.1609 35.6452 66.2821 36.1106 66.61C36.5766 66.9378 36.937 67.5815 36.4194 68.3175L35.4094 69.7534ZM49.2656 59.7359C48.9795 60.2278 48.3694 60.6418 47.592 60.1909L44.0467 58.1267C43.6736 57.9098 43.1956 58.036 42.9786 58.4089C42.7614 58.7818 42.8878 59.26 43.2606 59.4771L46.8059 61.5414C46.8064 61.5415 46.8067 61.5417 46.8072 61.542L47.7328 62.0812C48.1505 62.3243 48.3612 62.659 48.3598 63.0764C48.3581 63.5457 48.0725 64.0364 47.6652 64.2696C47.3031 64.4768 46.9078 64.4587 46.4902 64.2156L45.342 63.547C45.3419 63.547 45.3419 63.547 45.3417 63.5468L41.7617 61.4623C41.3886 61.2454 40.9106 61.3717 40.6936 61.7445C40.4764 62.1173 40.6027 62.5956 40.9756 62.8128L44.5555 64.8971C44.5555 64.8971 44.5556 64.8971 44.5556 64.8973C45.3331 65.3503 45.2742 66.0857 44.9873 66.5781C44.7008 67.07 44.0902 67.4843 43.3125 67.0314L42.3972 66.4984L39.477 64.7981C39.1042 64.581 38.6258 64.7073 38.4089 65.0803C38.1917 65.4531 38.318 65.9314 38.6909 66.1486L41.6111 67.8489C41.6116 67.849 41.6119 67.8492 41.6123 67.8495C42.3881 68.3026 42.3289 69.0376 42.0425 69.5295C41.7558 70.0215 41.145 70.4356 40.3677 69.9829L38.0295 68.6215C38.5792 67.3165 37.9967 66.0264 37.01 65.3325C36.6533 65.0817 36.2414 64.9065 35.8114 64.8307C36.5013 63.4639 35.9106 62.0832 34.8775 61.3562C34.4002 61.0204 33.8233 60.8203 33.2369 60.8121C33.2834 59.8411 32.7642 58.9585 32.0077 58.4262C31.1097 57.7946 29.8606 57.6442 28.8575 58.3443C28.6386 57.9065 28.305 57.5281 27.9055 57.2473C26.7688 56.4486 25.0683 56.4209 24.0181 57.9139L23.0558 59.2818L19.9259 55.3732L25.4842 45.7459L29.9219 47.3311C29.718 47.5304 29.5075 47.7378 29.2875 47.9543C28.9005 48.3354 28.4827 48.7473 28.0255 49.19C27.8827 49.3282 27.798 49.5156 27.7886 49.714L27.5564 54.6026C27.4986 55.8189 28.0831 56.3737 28.4367 56.5962C29.2127 57.0845 30.3386 56.9764 31.6066 56.2915C32.6833 55.7103 33.3145 54.3615 33.8716 53.1715C33.9914 52.9154 34.1062 52.6701 34.2205 52.4421C34.303 52.4031 34.3856 52.364 34.468 52.3248C35.9931 51.6007 36.9909 51.2026 37.9872 51.7778L48.8331 58.056C49.6103 58.5084 49.5519 59.2437 49.2656 59.7359ZM49.2495 56.4914L38.7692 50.4248C36.99 49.3976 35.2942 50.2026 33.7978 50.9131C33.6391 50.9884 33.4802 51.0639 33.3209 51.1375C33.1656 51.209 33.0383 51.3295 32.9581 51.4804C32.7861 51.8043 32.6184 52.1625 32.4564 52.5089C32.0019 53.4798 31.4867 54.5803 30.8642 54.9164C29.9434 55.4134 29.4178 55.3673 29.2687 55.2734C29.1109 55.174 29.1102 54.8228 29.117 54.6765L29.3347 50.0964C29.7095 49.7315 30.0578 49.3886 30.3841 49.0671C33.5198 45.9779 34.3625 45.1476 37.5011 45.8384C39.6181 46.3043 42.8077 46.7796 46.5013 45.7195L51.9302 55.1228L49.2495 56.4914ZM59.4073 54.0712L55.5288 56.3104C55.0702 56.5751 54.4817 56.4175 54.217 55.959L47.4102 44.169C47.2828 43.9486 47.2495 43.6901 47.3163 43.4409C47.383 43.1918 47.5411 42.9845 47.7617 42.8573L51.6402 40.6181C51.7911 40.5309 51.9559 40.4896 52.1188 40.4896C52.4509 40.4896 52.7744 40.662 52.952 40.9695L59.7589 52.7595C60.0236 53.2179 59.8659 53.8065 59.4073 54.0712ZM64.0678 24.6143C65.5947 23.5512 66.5956 21.7834 66.5956 19.7861C66.5956 16.544 63.958 13.9064 60.7159 13.9064C59.4827 13.9064 58.3045 14.2851 57.3173 14.987C55.8795 12.9903 53.8692 11.554 51.5778 10.8426C53.1003 9.77887 54.0983 8.01355 54.0983 6.01949C54.0983 2.7773 51.4606 0.139648 48.2186 0.139648C44.9766 0.139648 42.3389 2.7773 42.3389 6.01949C42.3389 8.01496 43.3381 9.78137 44.8623 10.8448C42.622 11.5428 40.6436 12.9346 39.2119 14.8634C38.288 14.2586 37.1842 13.9065 35.9998 13.9065C34.6697 13.9065 33.4412 14.3506 32.4548 15.0981C31.0227 13.0704 28.9581 11.5854 26.6256 10.8518C28.1558 9.78918 29.1592 8.01933 29.1592 6.01949C29.1592 2.7773 26.5216 0.139648 23.2795 0.139648C20.0375 0.139648 17.3998 2.7773 17.3998 6.01949C17.3998 8.0159 18.4 9.78308 19.9256 10.8464C17.7241 11.5336 15.7708 12.8912 14.3452 14.7681C13.453 14.2217 12.4045 13.9065 11.2838 13.9065C8.04172 13.9065 5.40406 16.5442 5.40406 19.7862C5.40406 21.7836 6.405 23.5515 7.93187 24.6145C3.37656 26.0429 0.0625 30.304 0.0625 35.3246C0.0625 35.7562 0.412344 36.1059 0.84375 36.1059H21.7242C22.1556 36.1059 22.5055 35.7562 22.5055 35.3246C22.5055 30.3029 19.1895 26.0411 14.6323 24.6132C15.4552 24.0428 16.1339 23.2645 16.5812 22.3392H30.7027C31.1498 23.2643 31.8286 24.0426 32.6514 24.6132C28.0942 26.0411 24.7784 30.3029 24.7784 35.3246C24.7784 35.7562 25.1283 36.1059 25.5597 36.1059H46.4402C46.8716 36.1059 47.2214 35.7562 47.2214 35.3246C47.2214 30.3029 43.9055 26.0411 39.3484 24.6132C40.1712 24.0428 40.85 23.2645 41.2972 22.3392H55.4186C55.8658 23.2643 56.5447 24.0426 57.3673 24.6132C52.8102 26.0411 49.4944 30.3029 49.4944 35.3246C49.4944 35.7562 49.8442 36.1059 50.2756 36.1059H71.1562C71.5877 36.1059 71.9375 35.7562 71.9375 35.3246C71.9375 30.304 68.6234 26.0429 64.0678 24.6143ZM18.9627 6.01933C18.9627 3.63887 20.8994 1.70199 23.2798 1.70199C25.6603 1.70199 27.597 3.63887 27.597 6.01933C27.597 8.39965 25.6603 10.3364 23.2798 10.3365C20.8992 10.3365 18.9627 8.3998 18.9627 6.01933ZM20.9117 34.5434H1.65625C2.05531 29.5814 6.22094 25.6657 11.2839 25.6657C16.3469 25.6657 20.5127 29.5814 20.9117 34.5434ZM15.3333 21.2864C14.7086 22.9712 13.0813 24.1031 11.2839 24.1031C8.90344 24.1031 6.96672 22.1664 6.96672 19.7859C6.96672 17.4054 8.90344 15.4687 11.2839 15.4687C13.6644 15.4687 15.6011 17.4054 15.6011 19.7859C15.6011 20.302 15.5111 20.807 15.3333 21.2864ZM30.1203 19.7859C30.1203 20.12 30.1481 20.4507 30.2036 20.7767H17.0805C17.1358 20.4511 17.1637 20.1201 17.1637 19.7859C17.1637 18.2265 16.5536 16.807 15.5592 15.7534C17.382 13.3284 20.2227 11.8989 23.2798 11.8989C26.5119 11.8989 29.5475 13.5409 31.3291 16.2184C30.5711 17.2084 30.1203 18.4454 30.1203 19.7859ZM45.6277 34.5434H26.3722C26.7712 29.5814 30.9369 25.6657 36 25.6657C41.0631 25.6657 45.2286 29.5814 45.6277 34.5434ZM40.0494 21.2864C39.4247 22.9712 37.7975 24.1031 36 24.1031C34.2025 24.1031 32.5753 22.9712 31.9519 21.2896L31.937 21.2489C31.7683 20.7804 31.6828 20.2884 31.6828 19.7859C31.6828 17.4054 33.6195 15.4687 36 15.4687C38.3805 15.4687 40.3172 17.4054 40.3172 19.7859C40.3172 20.3018 40.227 20.8068 40.0494 21.2864ZM43.9014 6.01933C43.9014 3.63887 45.8381 1.70199 48.2186 1.70199C50.5991 1.70199 52.5358 3.63887 52.5358 6.01933C52.5358 8.3998 50.5991 10.3365 48.2186 10.3365C45.8381 10.3365 43.9014 8.3998 43.9014 6.01933ZM54.8363 19.7859C54.8363 20.12 54.8642 20.4507 54.9197 20.7767H41.7966C41.8519 20.4511 41.8798 20.1201 41.8798 19.7859C41.8798 18.2918 41.3197 16.9261 40.3984 15.8879C42.2158 13.379 45.0958 11.899 48.2188 11.899C51.4281 11.899 54.357 13.445 56.1645 16.0632C55.3036 17.1106 54.8363 18.4106 54.8363 19.7859ZM56.6683 21.2909L56.653 21.2489C56.4842 20.7804 56.3988 20.2882 56.3988 19.7859C56.3988 18.6168 56.8589 17.5217 57.6945 16.7026C58.5062 15.907 59.5794 15.4689 60.7159 15.4689C63.0964 15.4689 65.0331 17.4056 65.0331 19.7861C65.0331 22.1665 63.0964 24.1032 60.7159 24.1032C58.9184 24.1031 57.2913 22.9712 56.6683 21.2909ZM51.0883 34.5434C51.4873 29.5814 55.653 25.6657 60.7159 25.6657C65.7789 25.6657 69.9445 29.5815 70.3436 34.5434H51.0883Z" fill="black"/>
</svg>
