<svg width="80" height="80" viewBox="0 0 80 80" fill="none" xmlns="http://www.w3.org/2000/svg">
<g clip-path="url(#clip0_72_2293)">
<path d="M40.0003 0C27.6497 0 17.6016 10.0481 17.6016 22.3989V33.3666C17.6016 34.1134 18.2077 34.7191 18.9545 34.7191H26.4634C27.2103 34.7191 27.8159 34.1134 27.8159 33.3666V22.3989C27.8159 15.6805 33.2817 10.2145 40.0002 10.2145C46.7186 10.2145 52.1844 15.6805 52.1844 22.3989V33.3666C52.1844 34.1134 52.7906 34.7191 53.5377 34.7191H61.0466C61.7934 34.7191 62.3991 34.1134 62.3991 33.3666V22.3989C62.3992 10.0481 52.3511 0 40.0003 0ZM59.6942 32.0141H54.8898V22.3989C54.8898 14.1889 48.2105 7.50953 40.0006 7.50953C31.7908 7.50953 25.1114 14.1889 25.1114 22.3989V32.0141H20.307V22.3989C20.307 11.5397 29.1414 2.70516 40.0005 2.70516C50.8597 2.70516 59.6942 11.5397 59.6942 22.3989V32.0141Z" fill="black"/>
<path d="M64.1597 32.0142H15.838C12.6341 32.0142 10.0273 34.6209 10.0273 37.8248V74.1895C10.0273 77.3934 12.6341 80.0001 15.838 80.0001H64.1597C67.3636 80.0001 69.9702 77.3934 69.9702 74.1893V37.8248C69.9702 34.6209 67.3636 32.0142 64.1597 32.0142ZM67.2652 74.1893C67.2652 75.9018 65.872 77.2949 64.1597 77.2949H15.838C14.1255 77.2949 12.7323 75.9018 12.7323 74.1893V37.8248C12.7323 36.1123 14.1255 34.7192 15.838 34.7192H64.1597C65.872 34.7192 67.2652 36.1123 67.2652 37.8248V74.1893Z" fill="black"/>
<path d="M44.5482 57.7782C46.1284 56.4468 47.0479 54.5003 47.0479 52.4086C47.0479 48.5222 43.886 45.3604 39.9996 45.3604C36.113 45.3604 32.9512 48.5222 32.9512 52.4086C32.9512 54.5003 33.8707 56.4468 35.4512 57.7785L33.9307 65.0225C33.8471 65.4216 33.9476 65.8368 34.2045 66.1532C34.4615 66.4693 34.8471 66.6532 35.2545 66.6532H44.7448C45.1523 66.6532 45.5379 66.4694 45.7946 66.1532C46.0513 65.8366 46.1518 65.4214 46.0682 65.0229L44.5482 57.7782ZM42.3202 56.0655C41.8452 56.368 41.607 56.9332 41.7227 57.4844L43.079 63.9478H36.9204L38.277 57.4849C38.3926 56.9335 38.1548 56.3683 37.6795 56.066C36.4126 55.2597 35.6563 53.8924 35.6563 52.4088C35.6563 50.0139 37.6046 48.0657 39.9996 48.0657C42.3945 48.0657 44.3427 50.0139 44.3427 52.4088C44.343 53.8927 43.5868 55.2597 42.3202 56.0655Z" fill="black"/>
</g>
<defs>
<clipPath id="clip0_72_2293">
<rect width="80" height="80" fill="white"/>
</clipPath>
</defs>
</svg>
